HIERARCHY
ROOT Hips
{
	OFFSET 0.000000 0.000000 0.000000
	CHANNELS 6 Xposition Yposition Zposition Yrotation Xrotation Zrotation
	JOINT Chest
	{
		OFFSET 0.000000 -0.009281 11.569106
		CHANNELS 3 Yrotation Xrotation Zrotation
		JOINT Chest2
		{
			OFFSET -0.000000 0.016865 9.269641
			CHANNELS 3 Yrotation Xrotation Zrotation
			JOINT Chest3
			{
				OFFSET -0.000000 0.000001 8.374491
				CHANNELS 3 Yrotation Xrotation Zrotation
				JOINT Chest4
				{
					OFFSET -0.000000 0.000001 8.374493
					CHANNELS 3 Yrotation Xrotation Zrotation
					JOINT Neck
					{
						OFFSET -0.000000 0.000002 12.152554
						CHANNELS 3 Yrotation Xrotation Zrotation
						JOINT Head
						{
							OFFSET -0.000000 0.040101 7.802319
							CHANNELS 3 Yrotation Xrotation Zrotation
							End Site
							{
								OFFSET -0.000000 0.020947 14.853096
							}
						}
					}
					JOINT RightCollar
					{
						OFFSET 2.894404 0.000001 6.791374
						CHANNELS 3 Yrotation Xrotation Zrotation
						JOINT RightShoulder
						{
							OFFSET 13.574684 0.000001 0.000000
							CHANNELS 3 Yrotation Xrotation Zrotation
							JOINT RightElbow
							{
								OFFSET 23.923903 0.000002 0.000000
								CHANNELS 3 Yrotation Xrotation Zrotation
								JOINT RightWrist
								{
									OFFSET 19.846718 0.012767 0.000000
									CHANNELS 3 Yrotation Xrotation Zrotation
									End Site
									{
										OFFSET 14.973145 0.000001 0.000000
									}
								}
							}
						}
					}
					JOINT LeftCollar
					{
						OFFSET -2.894404 0.000001 6.791374
						CHANNELS 3 Yrotation Xrotation Zrotation
						JOINT LeftShoulder
						{
							OFFSET -13.574684 -0.000001 0.000000
							CHANNELS 3 Yrotation Xrotation Zrotation
							JOINT LeftElbow
							{
								OFFSET -23.923903 -0.000002 0.000000
								CHANNELS 3 Yrotation Xrotation Zrotation
								JOINT LeftWrist
								{
									OFFSET -19.846718 0.012763 0.000000
									CHANNELS 3 Yrotation Xrotation Zrotation
									End Site
									{
										OFFSET -14.973145 -0.000001 0.000000
									}
								}
							}
						}
					}
				}
			}
		}
	}
	JOINT RightHip
	{
		OFFSET 9.469263 0.004643 0.045487
		CHANNELS 3 Yrotation Xrotation Zrotation
		JOINT RightKnee
		{
			OFFSET 0.000000 0.002661 -40.478676
			CHANNELS 3 Yrotation Xrotation Zrotation
			JOINT RightAnkle
			{
				OFFSET 0.000000 0.049106 -35.224068
				CHANNELS 3 Yrotation Xrotation Zrotation
				JOINT RightToe
				{
					OFFSET -0.000001 12.539529 -6.151390
					CHANNELS 3 Yrotation Xrotation Zrotation
					End Site
					{
						OFFSET -0.000001 5.044994 -1.291870
					}
				}
			}
		}
	}
	JOINT LeftHip
	{
		OFFSET -9.469263 0.004641 0.045487
		CHANNELS 3 Yrotation Xrotation Zrotation
		JOINT LeftKnee
		{
			OFFSET 0.000000 0.002661 -40.478676
			CHANNELS 3 Yrotation Xrotation Zrotation
			JOINT LeftAnkle
			{
				OFFSET 0.000000 0.049106 -35.224068
				CHANNELS 3 Yrotation Xrotation Zrotation
				JOINT LeftToe
				{
					OFFSET -0.000001 12.539529 -6.151390
					CHANNELS 3 Yrotation Xrotation Zrotation
					End Site
					{
						OFFSET -0.000001 5.044994 -1.291870
					}
				}
			}
		}
	}
}
MOTION
Frames: 16
Frame Time: 0.016667
104.437531 76.593910 82.485298 -4.740651 6.622636 14.360357 3.595535 -0.755855 -6.919850 1.480092 -0.413571 -3.125589 1.480092 -0.413571 -3.125590 1.107984 -0.317760 -2.343196 6.024463 -20.187418 -7.663698 8.640935 -1.146808 -12.123646 8.318300 4.098682 -1.830064 50.620325 2.045673 -22.464649 -6.187925 -21.071564 -12.134278 -0.043379 0.575679 0.558622 -12.418972 -2.274794 -4.643148 -78.429710 -1.534941 -13.182312 -9.864783 6.732482 -24.748455 5.959522 0.568738 -19.598920 10.772866 11.898988 18.760948 -0.520549 -4.134657 -1.604128 10.731967 -4.352037 6.819927 -2.726194 -1.015416 0.078859 -4.458918 -18.475667 -8.669750 1.026624 -12.874282 6.796152 4.189777 0.632200 -13.524105 10.152613 21.525037 1.899669 
104.404549 78.305107 82.754059 -5.466623 7.239058 15.309340 3.786046 -0.804498 -6.891210 1.630217 -0.436496 -3.141466 1.630217 -0.436496 -3.141467 1.220450 -0.335765 -2.354944 6.329075 -20.254088 -7.850229 9.142016 -1.254908 -12.371555 8.360494 4.409320 -1.695301 49.004965 0.395531 -23.373604 -6.238804 -23.280954 -12.371398 0.535047 -0.366403 -0.524077 -12.311842 -2.326984 -4.606243 -78.616133 -2.720201 -13.620992 -10.784034 7.268599 -25.328626 5.950341 1.520134 -19.722274 11.415498 9.809167 18.875603 -0.742002 -3.058130 -1.183564 11.411539 -4.915153 5.221128 -2.985626 0.276406 0.082171 -3.164074 -18.749872 -8.848228 1.140492 -14.649446 6.925123 4.337285 -1.388233 -14.263558 11.109800 25.352983 2.432822 
104.317352 80.071243 83.056877 -6.309701 8.092194 15.982660 4.077711 -0.990741 -6.772424 1.844179 -0.460805 -3.093923 1.844179 -0.460806 -3.093925 1.380836 -0.354955 -2.319065 6.545210 -20.339615 -8.022550 9.487610 -1.401863 -12.621300 8.503073 4.586212 -1.291330 47.348186 -0.860201 -24.077754 -6.451904 -25.351050 -12.583744 0.907547 -1.740728 -1.346336 -12.166991 -2.184267 -4.293938 -79.162125 -3.750482 -13.825056 -11.414534 7.547660 -25.455222 6.097182 2.841143 -19.933333 12.290254 8.225348 18.382230 -0.721071 -3.367883 -0.274048 11.639003 -4.432529 3.159522 -2.872638 1.210406 0.179252 -1.780469 -18.818746 -8.848392 1.069814 -17.033472 7.313160 4.765685 -4.018355 -14.938165 12.246541 30.048164 3.219232 
104.352631 81.838997 83.360954 -7.269385 8.889221 16.391155 4.534876 -1.169556 -6.539472 2.043106 -0.508306 -2.988843 2.043106 -0.508308 -2.988843 1.529877 -0.391239 -2.239947 6.766434 -20.366280 -8.174586 9.845301 -1.439494 -12.831350 8.499041 4.802569 -1.167123 46.025390 -2.202810 -24.190846 -6.727454 -27.235402 -12.758758 0.995987 -3.160602 -1.983052 -11.936502 -1.834671 -4.035877 -80.087834 -4.431471 -13.786809 -11.576948 7.605927 -25.265295 6.305832 4.226641 -20.249807 13.252384 7.337583 16.922311 0.171477 -4.218406 -1.795741 10.629815 -4.302334 4.748566 -2.499725 1.721350 0.260929 -0.319126 -18.323572 -8.700766 0.977524 -20.002093 8.176950 5.406114 -7.314875 -16.139194 13.737008 35.532246 4.462663 
104.614349 83.570885 83.633842 -8.174581 9.574717 16.782004 5.046254 -1.282634 -6.333452 2.182767 -0.535511 -2.868637 2.182767 -0.535511 -2.868637 1.634593 -0.411895 -2.149582 6.999571 -20.380557 -8.299798 10.231985 -1.453742 -12.988714 8.393908 4.781545 -1.375015 44.946302 -3.590038 -23.567424 -6.954000 -28.901341 -12.851684 0.829449 -4.442963 -2.441847 -11.586730 -1.892820 -3.846793 -81.109780 -4.914221 -13.906825 -11.552088 7.851302 -24.960699 6.683703 5.205770 -20.697517 14.128759 6.379506 13.757267 0.983187 -4.936640 -3.176400 9.235188 -4.196361 8.015504 -2.020796 2.082194 0.256640 1.262768 -17.149878 -8.431197 0.935515 -23.488633 9.398639 5.993094 -11.620737 -18.220054 16.345763 41.838710 6.843284 
104.636482 85.192841 83.132530 -8.096957 9.901991 17.508126 4.661398 -1.409746 -6.265755 2.276192 -0.538941 -2.771807 2.276191 -0.538941 -2.771806 1.704728 -0.414545 -2.076866 7.218175 -20.375211 -8.378423 10.605173 -1.432898 -13.065214 8.296373 4.507120 -1.651326 44.049854 -4.919136 -22.475202 -7.173935 -30.201382 -12.698994 0.537571 -5.542302 -2.722644 -11.174818 -2.364113 -3.692210 -81.936418 -5.408942 -14.258192 -11.644400 8.470444 -24.687838 7.316611 5.605591 -21.212799 14.279340 4.958170 10.988661 1.368939 -4.584216 -2.305690 7.598964 -5.346662 8.472924 -1.368141 3.676591 0.349346 1.954419 -15.364331 -8.225103 1.079232 -27.525954 10.733394 5.665157 -16.881168 -21.863135 22.672862 48.070079 12.458261 
104.736465 86.781837 82.831551 -8.329884 10.064193 18.249009 4.507166 -1.355963 -6.115419 2.369433 -0.496822 -2.703360 2.369432 -0.496823 -2.703361 1.774906 -0.383115 -2.025619 7.413648 -20.383470 -8.441047 10.941906 -1.438595 -13.120049 8.188103 4.064446 -1.911634 43.411306 -6.234589 -21.191000 -7.371481 -30.993459 -12.343187 0.163060 -6.459853 -2.897227 -10.845801 -2.887138 -3.517906 -82.412803 -6.044640 -14.421024 -11.881862 9.276077 -24.489252 8.092741 5.582146 -21.654565 14.844134 3.899763 10.377996 1.540146 -4.486940 -1.136309 6.527369 -4.744372 6.876967 -0.761934 3.971802 0.270324 3.264214 -12.836530 -8.182583 1.038108 -31.839951 11.764556 5.858866 -23.397902 -24.492932 30.592441 55.159696 19.240913 
104.404747 88.229858 82.525078 -7.932437 10.290074 19.277258 3.750728 -1.697490 -6.011708 2.494639 -0.424062 -2.658603 2.494640 -0.424060 -2.658603 1.869168 -0.328912 -1.992250 7.584349 -20.361199 -8.489832 11.236132 -1.389214 -13.156216 8.110906 3.721668 -1.969997 42.833086 -7.418203 -19.895446 -7.464855 -31.542319 -11.898437 -0.186569 -7.113843 -3.030582 -10.558183 -3.166825 -3.191327 -82.709117 -6.687317 -14.320996 -12.141549 9.834187 -24.247510 8.795989 5.445003 -21.937586 14.548651 3.024906 10.866411 2.111661 -5.443186 -0.866641 5.688451 -2.218241 5.349917 -0.347575 3.094432 -0.079333 4.206034 -10.232382 -8.271768 0.673524 -35.961646 12.316910 7.115500 -29.536678 -25.225550 37.599556 62.262181 25.690175 
104.012527 89.511147 82.194504 -8.280820 10.276922 19.895388 3.583098 -1.759780 -5.439044 2.636291 -0.340159 -2.626446 2.636291 -0.340159 -2.626446 1.975793 -0.266460 -1.968404 7.777933 -20.305656 -8.550768 11.566561 -1.277191 -13.206242 8.104299 3.750846 -1.812553 42.422670 -8.542747 -18.732183 -7.620360 -31.873020 -11.462281 -0.559140 -7.683829 -3.098818 -10.387989 -2.912360 -2.781267 -82.951466 -7.058568 -13.810380 -12.183555 9.897229 -23.770108 9.233703 5.442027 -22.137908 14.755888 2.501774 11.772535 2.748050 -5.961293 -1.779836 4.742329 -0.255386 4.719375 0.057588 2.310888 -0.177936 5.572527 -7.185323 -7.509994 0.732041 -39.602236 11.639648 8.188280 -34.013078 -24.171884 42.127142 68.175574 30.812472 
103.604179 90.680710 81.881439 -9.404347 10.300865 20.945530 4.162684 -1.625840 -5.245272 2.768963 -0.276150 -2.593423 2.768962 -0.276149 -2.593421 2.075590 -0.218872 -1.943858 8.020703 -20.200945 -8.650449 11.972162 -1.071509 -13.309657 8.256674 4.147692 -1.563591 42.070335 -9.391199 -17.544937 -7.853110 -32.312990 -11.169552 -1.213709 -8.353389 -3.000169 -10.347983 -2.426059 -2.502961 -83.236736 -6.904408 -13.124171 -11.868044 9.601305 -22.999716 9.395264 5.616814 -22.417936 15.633208 2.328650 11.752843 3.303282 -6.345148 -3.688747 3.935570 1.032841 5.589156 0.296071 2.009520 -0.338696 7.408619 -4.082922 -6.554252 1.310190 -42.782587 9.935524 8.324949 -35.029028 -20.421837 36.631131 72.261236 27.809385 
103.171707 91.821678 81.614182 -10.762311 10.143960 22.463447 4.997501 -1.227569 -5.428100 2.849671 -0.224870 -2.537543 2.849670 -0.224871 -2.537547 2.136360 -0.180494 -1.902158 8.328348 -20.038042 -8.795909 12.478983 -0.754629 -13.473627 8.359996 4.362031 -1.645484 41.875545 -9.824578 -15.765586 -8.161028 -33.138442 -10.947066 -2.349984 -9.145050 -2.618446 -10.260425 -2.350442 -2.427530 -83.691708 -6.294805 -12.782893 -11.309998 9.385135 -22.011214 9.602741 5.944777 -22.995661 16.708212 2.442275 11.063327 3.619246 -6.590818 -4.736815 3.223829 2.175565 5.714044 0.527123 1.893055 -0.317208 9.113831 -0.727267 -5.792265 1.902247 -45.257452 8.095384 8.573337 -33.440217 -15.340315 19.211464 73.609399 14.483070 
102.752251 92.971268 81.386154 -11.927270 9.809574 23.974119 5.723879 -0.723078 -5.488541 2.866127 -0.159797 -2.454299 2.866127 -0.159797 -2.454300 2.148993 -0.131364 -1.840019 8.669765 -19.854344 -8.977822 13.035230 -0.397085 -13.691761 8.328372 4.190342 -2.106276 41.898904 -10.066814 -13.403994 -8.490248 -34.215170 -10.698878 -3.805285 -9.963676 -2.014495 -10.215666 -2.395774 -2.470827 -84.208166 -5.659150 -12.412007 -10.673240 9.713398 -20.846321 10.091225 6.481257 -23.969886 17.598969 2.581947 10.344007 3.916294 -6.593995 -4.335431 2.327209 3.154464 4.427610 0.770522 1.835028 -0.121913 10.411666 2.870749 -5.122452 2.267718 -47.134541 6.967467 9.642446 -30.231927 -11.416005 1.550169 71.078234 1.057521 
102.376411 94.158951 81.183105 -12.799341 9.533548 25.664521 6.307216 -0.295542 -5.589342 2.850158 -0.067041 -2.368250 2.850159 -0.067041 -2.368249 2.137397 -0.061328 -1.775918 8.978016 -19.692950 -9.178565 13.526446 -0.081356 -13.954554 8.194871 3.750924 -2.729382 42.200727 -10.433501 -10.864541 -8.858592 -35.144421 -10.375068 -5.308042 -10.681891 -1.392132 -10.173994 -2.454335 -2.360849 -84.761370 -5.395795 -11.848796 -10.058569 10.630211 -19.515051 10.979049 7.368387 -25.320150 18.315736 2.693041 10.115393 4.261323 -6.638144 -4.503657 1.370581 3.837308 3.034767 0.964889 2.046556 0.070792 11.422828 6.633520 -5.019173 2.248677 -48.450005 7.062696 11.851847 -26.584242 -9.406672 -9.689493 66.327619 -6.355497 
102.030830 95.247452 80.982307 -13.432597 9.304981 27.193024 6.733029 0.077957 -5.379626 2.835337 0.028251 -2.314586 2.835339 0.028251 -2.314588 2.126647 0.010450 -1.736115 9.200872 -19.539197 -9.357424 13.869177 0.216626 -14.203883 7.953257 3.147638 -3.188702 42.744926 -10.954695 -8.430751 -9.187281 -35.762457 -9.958972 -6.611837 -11.234533 -0.934619 -10.110323 -2.603793 -2.035898 -85.282869 -5.322531 -11.211116 -9.490511 11.775367 -18.045421 12.158708 8.627306 -26.837632 18.857372 2.929094 10.724118 4.656914 -7.009302 -6.052211 0.649844 4.536390 2.594212 1.024402 2.260230 0.051654 12.119233 10.621172 -5.081721 2.377198 -49.333767 7.260420 13.735193 -23.444800 -8.386249 -15.280725 60.971091 -9.002819 
101.651390 96.269997 80.769478 -13.694296 9.257190 28.582747 6.925332 0.093617 -4.921055 2.823803 0.086712 -2.264061 2.823801 0.086712 -2.264066 2.118207 0.054575 -1.698492 9.369169 -19.310721 -9.505233 14.118347 0.649824 -14.409928 7.856341 2.795267 -3.185762 43.347058 -11.543377 -6.410228 -9.450692 -36.123166 -9.561924 -7.736528 -11.684745 -0.496104 -10.100006 -2.609425 -1.765752 -85.668454 -5.082384 -10.438904 -8.886824 12.792481 -16.510755 13.550450 10.091709 -28.324695 19.158491 2.917028 11.514629 5.052273 -7.510497 -7.751965 0.012575 5.440415 2.213957 1.065299 2.277908 0.022782 12.207727 14.393235 -5.185152 2.644373 -49.791454 7.002718 15.014885 -20.694157 -7.268678 -17.853785 55.313324 -9.512578 
101.210381 97.301353 80.547836 -13.661005 9.324670 29.966099 6.942407 -0.218418 -4.395341 2.790859 0.086178 -2.166561 2.790858 0.086177 -2.166561 2.093481 0.054742 -1.625351 9.546212 -18.970183 -9.655530 14.377142 1.290529 -14.612247 7.959489 2.585563 -2.945992 44.012011 -12.031094 -4.411115 -9.666095 -36.385955 -9.396226 -8.972324 -12.062223 0.086634 -10.060158 -2.585186 -1.654544 -85.952822 -4.774963 -9.747052 -8.069849 13.672896 -14.991528 14.987394 11.491768 -29.607296 19.252553 2.479917 11.543826 5.341055 -7.749668 -8.145375 -0.710654 6.448694 1.214812 1.125089 2.038935 0.067237 11.774409 17.703843 -5.535439 2.534024 -49.491766 6.953421 15.852765 -18.348391 -6.162262 -18.520596 49.509627 -8.914820 
